<svg width="100" height="100" viewBox="0 0 100 100" fill="none" xmlns="http://www.w3.org/2000/svg">
<rect width="100" height="100" rx="50" fill="black"/>
<path d="M69.2473 51.5574L42.3082 69.5169C42.1168 69.6442 41.8945 69.7173 41.6649 69.7282C41.4353 69.7392 41.207 69.6877 41.0043 69.5792C40.8017 69.4707 40.6322 69.3093 40.5141 69.1121C40.3959 68.9149 40.3334 68.6894 40.3333 68.4595V32.5407C40.3334 32.3108 40.3959 32.0853 40.5141 31.8881C40.6322 31.6909 40.8017 31.5295 41.0043 31.421C41.207 31.3125 41.4353 31.261 41.6649 31.272C41.8945 31.2829 42.1168 31.356 42.3082 31.4834L69.2473 49.4428C69.4214 49.5588 69.5641 49.7161 69.6628 49.9005C69.7615 50.0849 69.8131 50.2909 69.8131 50.5001C69.8131 50.7093 69.7615 50.9153 69.6628 51.0997C69.5641 51.2841 69.4214 51.4414 69.2473 51.5574Z" fill="white"/>
</svg>
