<svg width="229" height="229" viewBox="0 0 229 229" fill="none" xmlns="http://www.w3.org/2000/svg">
<path fill-rule="evenodd" clip-rule="evenodd" d="M139.461 29.6554L111.895 13.1245L84.3292 29.6554L52.3121 32.4893L39.7171 62.0589L15.4861 83.1699L22.6853 114.5L15.4861 145.83L39.7171 166.941L52.3121 196.511L84.3292 199.344L111.895 215.875L139.461 199.344L171.478 196.511L184.073 166.941L208.318 145.83L201.091 114.5L208.304 83.1699L184.059 62.0589L171.464 32.4893L139.461 29.6554ZM78.7187 93.0312C78.7187 91.1332 79.4727 89.313 80.8147 87.971C82.1568 86.6289 83.977 85.8749 85.875 85.8749C87.7729 85.8749 89.5931 86.6289 90.9352 87.971C92.2773 89.313 93.0312 91.1332 93.0312 93.0312C93.0312 94.9292 92.2773 96.7494 90.9352 98.0914C89.5931 99.4335 87.7729 100.187 85.875 100.187C83.977 100.187 82.1568 99.4335 80.8147 98.0914C79.4727 96.7494 78.7187 94.9292 78.7187 93.0312ZM85.875 71.5624C80.1811 71.5624 74.7204 73.8243 70.6943 77.8505C66.6681 81.8767 64.4062 87.3373 64.4062 93.0312C64.4062 98.7251 66.6681 104.186 70.6943 108.212C74.7204 112.238 80.1811 114.5 85.875 114.5C91.5688 114.5 97.0295 112.238 101.056 108.212C105.082 104.186 107.344 98.7251 107.344 93.0312C107.344 87.3373 105.082 81.8767 101.056 77.8505C97.0295 73.8243 91.5688 71.5624 85.875 71.5624ZM83.7853 155.348L155.348 83.7853L145.215 73.6521L73.6521 145.215L83.7853 155.348ZM135.969 143.125C135.969 141.227 136.723 139.407 138.065 138.065C139.407 136.723 141.227 135.969 143.125 135.969C145.023 135.969 146.843 136.723 148.185 138.065C149.527 139.407 150.281 141.227 150.281 143.125C150.281 145.023 149.527 146.843 148.185 148.185C146.843 149.527 145.023 150.281 143.125 150.281C141.227 150.281 139.407 149.527 138.065 148.185C136.723 146.843 135.969 145.023 135.969 143.125ZM143.125 121.656C137.431 121.656 131.97 123.918 127.944 127.944C123.918 131.97 121.656 137.431 121.656 143.125C121.656 148.819 123.918 154.279 127.944 158.306C131.97 162.332 137.431 164.594 143.125 164.594C148.819 164.594 154.279 162.332 158.306 158.306C162.332 154.279 164.594 148.819 164.594 143.125C164.594 137.431 162.332 131.97 158.306 127.944C154.279 123.918 148.819 121.656 143.125 121.656Z" fill="black" fill-opacity="0.03"/>
</svg>
