<svg width="40" height="40" viewBox="0 0 40 40" fill="none" xmlns="http://www.w3.org/2000/svg">
<path d="M20 3.33301C10.8 3.33301 3.33333 10.7997 3.33333 19.9997C3.33333 29.1997 10.8 36.6663 20 36.6663C29.2 36.6663 36.6667 29.1997 36.6667 19.9997C36.6667 10.7997 29.2 3.33301 20 3.33301ZM27.7333 14.6663C27.4833 17.2997 26.4 23.6997 25.85 26.6497C25.6167 27.8997 25.15 28.3163 24.7167 28.3663C23.75 28.4497 23.0167 27.733 22.0833 27.1163C20.6167 26.1497 19.7833 25.5497 18.3667 24.6163C16.7167 23.533 17.7833 22.933 18.7333 21.9663C18.9833 21.7163 23.25 17.833 23.3333 17.483C23.3449 17.43 23.3434 17.375 23.3288 17.3227C23.3143 17.2704 23.2873 17.2225 23.25 17.183C23.15 17.0997 23.0167 17.133 22.9 17.1497C22.75 17.183 20.4167 18.733 15.8667 21.7997C15.2 22.2497 14.6 22.483 14.0667 22.4663C13.4667 22.4497 12.3333 22.133 11.4833 21.8497C10.4333 21.5163 9.61666 21.333 9.68333 20.7497C9.71666 20.4497 10.1333 20.1497 10.9167 19.833C15.7833 17.7163 19.0167 16.3163 20.6333 15.6497C25.2667 13.7163 26.2167 13.383 26.85 13.383C26.9833 13.383 27.3 13.4163 27.5 13.583C27.6667 13.7163 27.7167 13.8997 27.7333 14.033C27.7167 14.133 27.75 14.433 27.7333 14.6663Z" fill="white"/>
</svg>
